<svg width="35" height="35" viewBox="0 0 35 35" fill="none" xmlns="http://www.w3.org/2000/svg">
<path d="M33.8313 31.1688L27.4563 24.8125C29.5131 22.1921 30.6291 18.9562 30.625 15.625C30.625 12.6583 29.7453 9.75819 28.097 7.29145C26.4488 4.82472 24.1061 2.90213 21.3653 1.76681C18.6244 0.631499 15.6084 0.334449 12.6987 0.913227C9.78894 1.49201 7.11619 2.92062 5.0184 5.0184C2.92062 7.11619 1.49201 9.78894 0.913227 12.6987C0.334449 15.6084 0.631499 18.6244 1.76681 21.3653C2.90213 24.1061 4.82472 26.4488 7.29145 28.097C9.75819 29.7453 12.6583 30.625 15.625 30.625C18.9562 30.6291 22.1921 29.5131 24.8125 27.4563L31.1688 33.8313C31.3431 34.007 31.5504 34.1465 31.7789 34.2417C32.0074 34.3369 32.2525 34.3859 32.5 34.3859C32.7475 34.3859 32.9926 34.3369 33.2211 34.2417C33.4496 34.1465 33.6569 34.007 33.8313 33.8313C34.007 33.6569 34.1465 33.4496 34.2417 33.2211C34.3369 32.9926 34.3859 32.7475 34.3859 32.5C34.3859 32.2525 34.3369 32.0074 34.2417 31.7789C34.1465 31.5504 34.007 31.3431 33.8313 31.1688ZM4.37501 15.625C4.37501 13.4 5.03481 11.2249 6.27097 9.37484C7.50714 7.52479 9.26415 6.08285 11.3198 5.23136C13.3755 4.37988 15.6375 4.15709 17.8198 4.59117C20.0021 5.02526 22.0066 6.09671 23.58 7.67005C25.1533 9.2434 26.2248 11.248 26.6588 13.4302C27.0929 15.6125 26.8701 17.8745 26.0187 19.9302C25.1672 21.9859 23.7252 23.7429 21.8752 24.979C20.0251 26.2152 17.85 26.875 15.625 26.875C12.6413 26.875 9.77984 25.6897 7.67005 23.58C5.56027 21.4702 4.37501 18.6087 4.37501 15.625Z" fill="white"/>
</svg>
